<svg width="705" height="260" viewBox="0 0 705 260" fill="none" xmlns="http://www.w3.org/2000/svg">
<g clip-path="url(#clip0_2080_322)">
<path d="M623.815 205.602C607.011 205.602 592.603 201.538 580.598 193.404C568.592 185.27 559.373 173.508 552.947 158.117C546.52 142.726 543.304 122.654 543.304 100.944C543.372 79.2334 546.622 62.2709 553.048 47.0097C559.475 31.7485 568.694 20.0991 580.699 12.0615C592.705 4.01829 607.079 -0.000488281 623.815 -0.000488281C640.552 -0.000488281 654.937 4.01829 666.982 12.0559C679.021 20.0934 688.257 31.7598 694.689 47.0492C701.116 62.3443 704.332 79.2956 704.332 100.938C704.332 122.581 701.116 142.822 694.689 158.213C688.263 173.604 679.044 185.35 667.038 193.449C655.033 201.549 640.625 205.602 623.821 205.602H623.815ZM623.815 175.175C636.878 175.175 647.199 169.037 654.784 156.755C662.369 144.472 666.162 124.853 666.162 100.938C666.162 85.1288 664.427 73.3607 660.956 62.6044C657.486 51.848 652.591 43.7313 646.26 38.2543C639.935 32.7772 632.452 30.0415 623.809 30.0415C610.815 30.0415 600.545 36.1799 592.993 48.4623C585.442 60.7447 581.632 77.2212 581.564 100.938C581.496 116.816 583.181 131.687 586.617 142.511C590.054 153.335 594.932 161.486 601.262 166.957C607.587 172.434 615.105 175.17 623.815 175.17V175.175Z" fill="currentColor"/>
<path d="M457.186 205.602C441.84 205.602 428.23 203.16 416.36 198.271C404.49 193.387 395.198 186.689 388.488 178.188C381.779 169.687 378.456 160.027 378.529 149.214C378.461 140.81 380.389 133.863 384.311 126.826C388.234 119.789 393.547 115.329 400.262 110.604C406.971 105.884 414.455 102.871 422.713 101.566V100.198C411.838 97.9199 401.822 90.911 395.362 82.6022C388.839 74.2085 386.374 64.464 386.374 53.6455C386.374 44.8392 389.331 34.1676 395.458 26.0905C401.579 18.0134 409.978 11.6432 420.644 6.98575C431.31 2.32826 443.491 -0.000488281 457.186 -0.000488281C470.882 -0.000488281 482.837 2.32826 493.469 6.98575C504.1 11.6432 512.494 18.0134 518.655 26.0905C524.816 34.1676 527.897 44.8392 527.897 53.6455C527.897 64.4583 524.873 73.9089 518.57 82.393C512.212 90.9619 502.224 97.9142 491.558 100.192V101.56C499.816 102.866 507.266 105.878 513.907 110.598C520.549 115.323 525.845 119.783 529.807 126.82C533.764 133.857 535.742 140.804 535.742 149.209C535.742 160.022 532.368 169.681 525.624 178.182C518.881 186.684 509.606 193.376 497.804 198.265C486.002 203.149 472.459 205.596 457.186 205.596V205.602ZM457.186 177.651C465.1 177.651 471.979 176.368 477.829 173.791C483.679 171.219 488.218 167.584 491.456 162.893C494.689 158.202 496.34 152.798 496.413 146.671C496.346 140.29 494.605 135.406 491.202 130.488C487.794 125.571 483.153 123.123 477.269 120.326C471.385 117.528 464.693 116.126 457.192 116.126C449.691 116.126 442.875 117.528 436.957 120.326C431.039 123.129 426.376 125.571 422.967 130.488C419.559 135.406 417.892 140.29 417.96 146.671C417.892 152.792 419.474 158.185 422.707 162.842C425.941 167.5 430.502 171.134 436.386 173.74C442.27 176.346 449.2 177.651 457.186 177.651ZM457.186 88.6671C463.653 88.6671 469.384 87.4292 474.375 84.9535C479.366 82.4778 483.306 77.6112 486.194 73.1798C489.082 68.7484 490.563 62.8644 490.631 57.0651C490.563 51.3337 489.116 46.3031 486.296 41.9678C483.475 37.6382 479.553 34.2807 474.528 31.9011C469.503 29.5215 463.72 28.3345 457.186 28.3345C450.652 28.3345 444.644 29.5215 439.585 31.9011C434.526 34.2807 430.604 37.6325 427.817 41.9678C425.031 46.3031 423.668 51.3337 423.742 57.0651C423.674 62.8644 425.064 68.7314 427.925 73.1289C430.779 77.5264 434.736 82.393 439.794 84.9027C444.853 87.4123 450.647 88.6671 457.186 88.6671Z" fill="currentColor"/>
<path d="M290.257 205.602C275.533 205.602 262.454 203.188 251.036 198.373C239.613 193.551 230.597 186.842 223.984 178.245C217.371 169.648 213.861 157.416 213.448 146.145H251.901C252.24 151.555 254.117 158.558 257.525 162.56C260.933 166.567 265.466 169.676 271.124 171.891C276.782 174.107 283.124 175.215 290.144 175.215C297.645 175.215 304.292 173.96 310.086 171.451C315.879 168.947 320.412 165.442 323.685 160.949C326.958 156.455 328.557 151.272 328.489 145.41C328.557 139.351 326.918 134.01 323.578 129.386C320.237 124.763 315.41 121.145 309.108 118.539C302.8 115.934 295.214 116.047 286.352 116.047H267.84V88.1019H286.352C293.649 88.1019 300.036 86.8979 305.53 84.4844C311.018 82.0765 315.331 78.6682 318.468 74.2707C321.605 69.8732 323.137 63.3618 323.069 57.5625C323.137 51.8932 321.825 46.9588 319.129 42.7591C316.433 38.5595 312.652 35.2811 307.779 32.9354C302.907 30.5897 297.193 29.4197 290.647 29.4197C284.102 29.4197 278.308 30.5276 272.854 32.7433C267.399 34.959 263.002 38.1016 259.661 42.1713C256.321 46.241 254.546 49.7962 254.343 55.3977H217.834C218.106 44.1948 221.497 35.6259 228.009 27.1249C234.52 18.6238 243.23 11.9767 254.139 7.18923C265.065 2.39609 277.302 -0.000488281 290.873 -0.000488281C304.445 -0.000488281 317.004 2.49217 327.331 7.4775C337.657 12.4628 345.655 19.1551 351.313 27.5601C356.971 35.9651 359.803 45.2461 359.803 55.409C359.871 66.6797 356.412 77.5434 349.42 85.1627C342.428 92.7876 333.277 97.7673 321.961 100.113V101.679C336.685 103.634 347.99 108.829 355.863 117.262C363.737 125.701 367.643 134.756 367.575 147.264C367.575 158.473 364.251 168.489 357.604 177.312C350.957 186.141 341.818 193.059 330.196 198.079C318.57 203.092 305.259 205.602 290.257 205.602Z" fill="currentColor"/>
<path d="M201.21 82.4439H118.772V-0.000488281H82.4385V82.4439H-0.00585938V118.777H82.4385V201.216H118.772V118.777H201.21V82.4439Z" fill="currentColor"/>
</g>
<defs>
<clipPath id="clip0_2080_322">
<rect width="704.338" height="260" fill="white"/>
</clipPath>
</defs>
</svg>
